<svg width="500" height="300" fill="none" xmlns="http://www.w3.org/2000/svg"><path d="M330.534 118.693c-.217-2.354-.896-4.458-1.967-7.1a1.006 1.006 0 00-.554-.555 1.012 1.012 0 00-.783.013c-2.8 1.192-10.788 4.917-10.771 8.559 0 .429.112.862.366 1.287 2.284 3.888 9.788 3.675 12.484 3.463.066-.005.121-.013.183-.017.467-.038.846-.404.908-.871.225-1.808.267-3.337.134-4.779z" fill="#959DA5"/><path d="M45.093 195.862l.02.791 130.092.896c0-1.082.02-2.164.059-3.246l-130.171 1.559z" fill="#FAFBFC"/><path d="M459.9 194.303H175.262a106.487 106.487 0 00-.058 3.246l284.583-2.629.113-.617z" fill="#FAFBFC"/><path d="M54.985 195.862h275.379c-18.05-2.342-49.467-9.142-82.954-18.117-19.784-5.296-37.605-10.692-50.188-15.183-15.971-5.704-20.404-8.813-21.633-10.459-1.475 2.529-6.896 6.034-16.171 10.442-9.663 4.587-23.204 9.983-38.129 15.192-22.2 7.745-49.063 15.55-66.304 18.125zm286.137.887H45.092v-.887c14.893 0 48.855-9.521 75.905-18.963 31.863-11.116 54.121-21.854 54.121-26.112h.883c0 .979 2.096 4.004 21.517 10.941 12.562 4.488 30.362 9.871 50.121 15.163 48.654 13.033 82.566 18.971 93.483 18.971v.887z" fill="#E1E4E8"/><path fill-rule="evenodd" clip-rule="evenodd" d="M166.763 149.252l1.042.059-3.071 54.262-1.043-.059 3.072-54.262zm-13.639 2.436l1.724.163-5.062 53.532-1.724-.163 5.062-53.533v.001zm-22.752 14.917l1.721.041-.784 33.313-1.721-.04.784-33.314zm-11.234 5.418l1.51.043-.885 31.303-1.509-.042.884-31.304zm-13.34 2.095l.89.08-2.802 31.124-.89-.08 2.802-31.124zm-31.219 6.65l.844.092-2.856 26.208-.845-.092 2.857-26.208zm113.98-32.265l2.917 54.273-.888.048-2.916-54.273.887-.048zm11.89 2.436l5.1 53.528-1.763.168-5.1-53.528 1.763-.168zm24.502 14.917l.833 33.314-1.771.045-.833-33.314 1.771-.045zm10.859 2.798l.85 31.31-1.475.04-.85-31.31 1.475-.04zm46.494 7.348l2.796 31.125-.884.079-2.796-31.125.884-.079zm7.729 3.631l2.891 26.202-.879.098-2.892-26.203.88-.098v.001z" fill="#F6F8FA"/><path d="M364.295 151.44c7.9-5.825 15.716-6.237 20.091 2.634 12.809-13.792 42.088-8.009 41.267 5.571-40.604-1.938-78.958 4.729-102.942 5.083 1.025-35.35 41.075-29.783 41.584-13.288zm-128.311-7.739c-.367-23.637-9.679-48.662-27.575-48.662-11.654 0-15.837 17.296-16.2 29.779-3.942-3.942-7.717-6.008-11.087-6.008-4.142 0-7.671 3.125-10.134 9.75-3.533-5.167-9.066-11.246-17.654-11.246-10.117 0-15.079 9.004-15.125 17.504-.004.467.004.937.025 1.408 4.933-.316 9.821-.462 14.679-.462 36.525 0 60.367 7.479 83.071 7.937" fill="#FAFBFC"/><path d="M472.945 139.16c-4.421-7.617-14.862-6.058-23.462-4.029.82-13.738-7.7-21.642-12.775-21.642-6.155 0-10 10.613-12.634 20.354-6.379-4.916-17.596 6.425-16.533 1.971 3.704-15.521-15.825-10.279-27.425 1.429 27.196 12.942 60.925-4.596 92.829 1.917" fill="#FAFBFC"/><path d="M331.714 116.695c-1.692.629-3.713.946-6.263.946-1.979 0-3.891-.354-5.679-1.092.004.433.113.867.367 1.292 2.108 3.583 8.641 3.683 11.766 3.508a29.782 29.782 0 00-.191-4.654" fill="#D1D5DA"/><path d="M319.771 116.551c1.792.737 3.704 1.092 5.679 1.092 2.555 0 4.571-.317 6.263-.946a32.494 32.494 0 00-2.125-8.284c-3.321 1.496-9.833 4.85-9.817 8.138" fill="#E1E4E8"/><path d="M331.498 107.603s-.362.137-.954.392c-.32.135-.638.273-.954.416a32.536 32.536 0 012.125 8.284c.288-.105.563-.221.833-.342.455-.213.888-.454 1.3-.717-.241-2.629-1.058-4.941-2.35-8.033" fill="#FFA657"/><path d="M333.85 115.637c-.417.263-.846.504-1.3.713-.271.125-.546.241-.837.345.183 1.542.25 3.096.191 4.655.24-.012.481-.027.721-.046.613-.05.975-.1.975-.1.329-2.159.4-3.921.25-5.567z" fill="#F85149"/><path d="M295.02 115.234c8.075-3.387 12.504-4.821 16.804-6.254a50.813 50.813 0 002.354-.85c-.829.087-1.729.242-2.729.483-9.813 2.384-29.184 11.471-29.184 11.471s-5.604 1.825-6.591 12.2c-.067.758-.134 1.475-.192 2.158.808-3.516 2.096-7.799 3.908-9.962 3.388-4.038 7.559-5.863 15.63-9.246" fill="#FAFBFC"/><path d="M322.38 112.091s-.9-4.729-8.205-3.962c-.783.304-1.583.596-2.35.85-4.3 1.437-8.729 2.866-16.804 6.254-8.075 3.387-12.246 5.212-15.629 9.25-1.812 2.158-3.104 6.442-3.912 9.958-.759 8.667-.584 11.409-.584 11.409l5.2-1.35c-.246-2.917-.65-6.355-.65-9.646 0-15.954 43.934-36.946 41.567-11.942l.854 10.738 4.163-1.084-3.65-20.475z" fill="#EDF0F2"/><path d="M321.013 122.913c2.366-25.005-41.567-4.013-41.567 11.941 0 3.292.404 6.729.65 9.646l41.771-10.85-.854-10.738v.001z" fill="#D1D5DA"/><path clip-rule="evenodd" d="M228.186 219.243c-.846-.384-1.592-.55-2.221-.55-1.512 0-2.362.95-2.362 2.104 0 2.066 2.591 3.725 4.304 3.725 1.462 0 2.275-1.125 2.275-2.375 0-1.092-.625-2.288-1.996-2.904z" stroke="#000" stroke-width=".3" stroke-miterlimit="10"/><path d="M249.302 149.198l101.4-29.241-2.525 4.416-94.667 26.088-4.208-1.263zm5.699 2.405l.821 1.171 2.946.213 20.825 46.075 5.262.204-22.3-46.913 13.467-2.941 3.35-3.613c-1.738.475 32.221-9.091 45.033-12.379l5.892.842 5.258-1.471-7.363 60.796 3.58-1.263 7.991-58.692 6.521-4.208.234-1.733c-6.43.896-19 3.196-42.755 9.033-27.395 6.733-41.962 12.021-48.762 14.879" fill="#959DA5"/><path d="M292.008 138.47l-38.491 11.021 1.483 2.113c6.8-2.859 21.367-8.146 48.762-14.879 23.755-5.838 36.325-8.138 42.755-9.034l.612-4.579-55.121 15.358zm-82.924 45.807l-1.333.342 6.254 16.304 2.408-.071-7.329-16.575z" fill="#D1D5DA"/><path d="M204.985 185.323l2.529 15.792 6.491-.192-6.254-16.304-2.766.704z" fill="#E1E4E8"/><path d="M198.623 178.373l-2.45.321 2.095 6.542 2.75-.042c.784.57 1.687.953 2.642 1.121a6.584 6.584 0 001.567.092l2.912-.175c2.904-.171 5.471-2.367 6.084-5.267l1.72.3.471-5.254-1.991-.967-1.684.546a5.55 5.55 0 00-1.741-1.2l-2.592-1.142a6.499 6.499 0 00-3.133-.533c-3.171.217-5.771 2.517-6.584 5.4a5.41 5.41 0 00-.066.258zm9.045-1.866a4.203 4.203 0 011.43 4.437 4.207 4.207 0 01-2.638 2.825 3.795 3.795 0 011.208-7.262" fill="#D1D5DA"/><path d="M208.02 182.78a4.19 4.19 0 01-2.979 1.238 4.203 4.203 0 01-2.983-1.238 4.195 4.195 0 01-1.234-2.979 4.202 4.202 0 011.233-2.984 4.216 4.216 0 017.196 2.984 4.192 4.192 0 01-1.233 2.979zm6.4-7.733l-3.025.983c-1.125-2.137-3.429-3.5-6.125-3.317-3.258.225-5.921 2.654-6.646 5.659l-2.45.325 2.092 6.541 1.583-1.154c1.163 1.429 2.946 2.334 4.971 2.334 3.392 0 6.454-2.509 7.162-5.867l1.917.337.521-5.841zm194.662-2.045v-.012c-.279-2.621-1.904-3.067-4.362-3.742l-.184-.05.159-.571.179.05c1.921.529 3.533.971 4.316 2.521.521-1.95 2.367-2.9 4.384-3.754l.233.541c-2.279.967-4.167 1.967-4.167 4.388 0 .185.01.37.03.554 0 .004 0 .008.004.013l-.592.062zm-269.759-16.028v-.016c.346-3.213-1.488-4.013-4.263-5.221l-.204-.088.338-.662.204.087c2.167.942 3.983 1.734 4.529 3.729 1.129-2.275 3.583-3.129 6.229-3.845l.134.695c-2.984.809-5.509 1.717-6.138 4.642a7.795 7.795 0 00-.108.679v.017l-.721-.017zm226.184-56.876l.158-.571c.03.008 5.534.745 7.23 3.762.645-2.425 4.279-4 4.5-3.479.175.412-5.434 2.4-4.021 5.225l-.592.063v-.005c.438-4.158-7.112-4.95-7.275-4.995" fill="#E1E4E8"/><path d="M253.62 172.18l2.491-1.054c-.1-.117-.196-.242-.296-.358l-3.179 1.212c.009 2.458-.396 5.438-.062 7.967.006-1.36.077-2.718.212-4.071.371-3.696.834-3.696.834-3.696" fill="#DCDCDC"/><path d="M261.218 178.955c-1.462-2.813-3.07-5.392-5.108-7.829l-2.492 1.054s-.462 0-.829 3.696a41.935 41.935 0 00-.216 4.071c.045.35.104.687.179 1.016l8.466-2.008z" fill="#D1D5DA"/><path d="M270.976 179.586l-1.271-2.617c-5.719 1.36-11.45 2.67-17.192 3.929-22.7 5.025-27.1 5.675-29.575 14.017-.762 2.563-1.341 5.85-2.216 10.217l5.025.071 58.041.829-12.812-26.446z" fill="#E1E4E8"/><path d="M227.816 188.985c2.162-.637 21.004-6.362 21.004-6.362l3.692-1.721c-22.7 5.025-27.096 5.671-29.575 14.012 1.295-2.196 3.45-5.508 4.879-5.929z" fill="#E1E4E8"/><path d="M270.976 179.586l-1.271-2.617c-5.719 1.36-11.45 2.67-17.192 3.929l-3.695 1.725s-18.838 5.725-21 6.363c-1.434.416-3.584 3.729-4.88 5.929-.762 2.563-1.341 5.85-2.216 10.217l5.025.071c-.371-1.88-.634-3.821-.634-5.651 0-5.47-1.741-9.737 45.863-19.966" fill="#FAFBFC"/><path d="M270.976 179.586c-47.604 10.229-45.863 14.496-45.863 19.967 0 1.829.263 3.77.634 5.65l58.041.829-12.812-26.446z" fill="#D1D5DA"/><path d="M234.249 209.212c-2.954-6.442-4.171-14.817-5.246-22.2-.35-2.408-.683-4.687-1.054-6.754l1.162-.208c.375 2.087.709 4.37 1.059 6.791 1.062 7.309 2.266 15.592 5.15 21.879l-1.071.492zM240.617 175.366c0-.429.475-.791 1.037-.791.559 0 1.034.362 1.034.791 0 .434-.475.796-1.034.796-.562 0-1.037-.362-1.037-.796zm2.116-6.783c0-.333.271-.604.6-.604a.605.605 0 010 1.208.61.61 0 01-.6-.604zm5.042 13.4l-3.463-12.121a1.602 1.602 0 00.63-1.279c0-.896-.721-1.621-1.609-1.621-.891 0-1.612.725-1.612 1.621 0 .892.721 1.617 1.612 1.617h.017l2.596 9.07c-.15.017-.292.03-.417.03-.929 0-1.566-.421-2.454-2.634.388-.329.625-.787.625-1.3 0-.996-.917-1.808-2.046-1.808-1.129 0-2.05.812-2.05 1.808 0 1 .921 1.813 2.05 1.813.175 0 .346-.021.508-.059.838 2.08 1.713 3.192 3.367 3.192.213 0 .442-.012.696-.05l-.004-.037.579 2.033.975-.275z" fill="#959DA5"/><path d="M259.249 190.34s-.254-3.196 2.121-4c2.479-.842 5.195-1.917 7.004-1.992 1.862-.083 3.454 3.65 3.629 6.592.167 2.888.217 4.213-5.3 5.163-5.063.87-6.492.629-7.146-1.617-.346-1.175-.308-4.146-.308-4.146" fill="#58A6FF"/><path d="M260.421 195.028c.716.966 2.204 1.05 6.35.312 3.362-.596 4.3-1.313 4.558-1.871.179-.379.183-.933.108-2.229a11.259 11.259 0 00-.616-2.942c-.654-1.858-1.65-3.141-2.596-3.104-1.738.063-4.375 1.079-6.879 1.921a2.161 2.161 0 00-1.279 1.075c-.255.492-.338 1.071-.354 1.504-.013.254-.005.383-.005.383.009.055.005.034.005.1-.013.98.033 3.075.27 3.892.121.404.259.717.438.958" fill="#7EE787"/><path d="M260.767 194.425c.575.775 1.841.934 6.07.15 3.163-.583 3.925-1.237 4.059-1.42.029-.109.05-.438-.021-1.617a10.183 10.183 0 00-.571-2.7c-.633-1.8-1.537-2.829-2.229-2.808-1.688.054-4.396 1.079-6.754 1.854-.613.2-.838.55-.925.716-.129.255-.2.617-.217.967-.012.208-.004.238-.004.238.017.204-.008.345.008 1.204.021 1.05.096 2.175.23 2.637.104.35.22.596.354.779zm10.133-1.283h.004c0-.004.004-.012-.004 0z" fill="#BFF3BA"/><path d="M244.352 192.342s5.579-.808 7.667-1.217c-.534-2.575-.904-5.383-1.042-7.716-2.121.391-7.025 2.075-7.025 2.075l.4 6.858z" fill="#959DA5"/><path d="M245.43 191.207c1.775-.209 4.275-.504 5.738-.729a52.67 52.67 0 01-.792-5.563c-1.854.396-4.371 1.283-5.237 1.596l.291 4.696z" fill="#444D56"/><path d="M245.337 187.935l1.163 1.896.666-3.166.559 2.337.745-2.179.859 2.608.175-1.987.387-1.009.763 1.342" stroke="#37B9DF" stroke-width=".59" stroke-linecap="round" stroke-linejoin="round"/><path d="M325.476 173.043l.35-2.225 3.042-4.1c1.2.062 1.737-.663 1.054 1.758l-4.446 4.567z" fill="#959DA5"/><path clip-rule="evenodd" d="M275.582 167.838c.466.288 1.004.38 1.562.38 2.963 0 5.909-1.896 6.234-3.005l-.009-.029c.488-1.021.238-1.529.238-2.733 0-3.604-2.288-6.534-5.096-6.534-2.813 0-5.1 2.93-5.1 6.534 0 2.504.412 4.304 2.171 5.387v0z" stroke="#6A737D" stroke-width="1.48" stroke-miterlimit="10"/><path d="M266.516 130.426l-1.541 1.062 4.82 11.846c.455-.104.884-.275 1.33-.375l-4.609-12.533z" fill="#D1D5DA"/><path d="M272.388 150.191l2.908 7.125 1.237-.854-2.879-6.512c-.424.072-.846.152-1.267.241" fill="#6A737D"/><path d="M265.178 128.813a.574.574 0 00-.192.033c-.221.067-.583.633-.583 1.146 0 .308.104.404.425.404.595 0 .925-.275.925-.779 0-.388-.234-.804-.575-.804zm-.351 2.737c-.954 0-1.575-.612-1.575-1.558 0-.871.559-1.979 1.384-2.242.183-.058.366-.087.541-.087 1.08 0 1.721.991 1.721 1.954 0 1.154-.833 1.933-2.071 1.933" fill="#D1D5DA"/><path d="M259.868 127.779l.912-1.821c1.367.846 3.325 2.179 4.604 2.875.713.684.371 1.792-.712 1.621-1.325-.721-3.375-1.792-4.804-2.675z" fill="#D1D5DA"/><path d="M105.107 132.92a7.298 7.298 0 01-10.094 6.745 7.299 7.299 0 01-4.506-6.745c0-4.033 3.266-7.3 7.3-7.3 4.033 0 7.3 3.267 7.3 7.3z" fill="#EDF0F2"/><path d="M104.222 132.92a6.386 6.386 0 01-.487 2.456 6.381 6.381 0 01-1.392 2.082 6.38 6.38 0 01-4.538 1.879 6.38 6.38 0 01-4.533-1.879 6.4 6.4 0 01-1.879-4.538c0-1.77.716-3.375 1.88-4.537a6.369 6.369 0 014.532-1.879 6.38 6.38 0 014.538 1.879 6.39 6.39 0 011.879 4.537" fill="#FAFBFC"/><path d="M323.783 156.462c-1 1.008-3.291 6.516-5.025 16.754-1.729 10.237-1.375 16.187-.766 17.475 1.004-1.013 3.291-6.521 5.025-16.759 1.729-10.233 1.375-16.187.766-17.47zm-3.729 3.621c5.6-16.196 9.513 4.295 1.667 26.987-5.388 15.583-9.608-4.017-1.667-26.987z" fill="#6A737D"/><path d="M257.556 125.895c-.416-1.338-.946-3.225-1.5-5.229-.646-2.292-1.354-6.054-1.966-8.046l2.512.121c.617 2.012.563 5.129 1.208 7.433.555 1.988 1.084 3.871 1.488 5.184l-1.742.537zm2.088 8.423c-.521-2.25-2.05-4.092-3.529-6.004l-5.513 1.687c.108.892.346 1.742.779 2.546 2.429 4.621 5.063 10.038 9.379 13.454l3.375-.937c-1.975-3.184-3.629-6.65-4.491-10.746z" fill="#D1D5DA"/><path d="M264.136 145.062l1.879-.521-6.746-17.196-3.154.967c1.479 1.913 3.008 3.754 3.529 6.004.863 4.1 2.513 7.563 4.492 10.746" fill="#D1D5DA"/><path d="M251.38 132.548c-.434-.804-.667-1.654-.78-2.546l-3.058.933 9.408 16.125 3.809-1.058c-4.313-3.417-6.95-8.837-9.379-13.454" fill="#B6BFC4"/><path d="M250.564 137.437c4.366-2.875 6.141-3.787 11.379-4.017" stroke="#0366D6" stroke-width="1.77" stroke-miterlimit="10"/><path d="M250.564 137.437c4.366-2.875 6.141-3.787 11.379-4.017" stroke="#AFF5B4" stroke-width=".59" stroke-miterlimit="10"/><path d="M250.564 137.437c4.366-2.875 6.141-3.787 11.379-4.017" stroke="#fff" stroke-width=".15" stroke-miterlimit="10"/><path d="M252.275 140.411c4.537-3.2 5.195-3.396 11.008-4.091" stroke="#0366D6" stroke-width="1.77" stroke-miterlimit="10"/><path d="M252.275 140.411c4.537-3.2 5.195-3.396 11.008-4.091" stroke="#AFF5B4" stroke-width=".59" stroke-miterlimit="10"/><path d="M252.275 140.411c4.537-3.2 5.195-3.396 11.008-4.091" stroke="#fff" stroke-width=".15" stroke-miterlimit="10"/><path d="M257.764 125.244c-1.609 1.263-1.046 3.679.85 3.988 6.896 1.116 2.604-6.696-.85-3.988z" fill="#959DA5"/><path d="M257.271 128.446c-1.808-2.304 1.913-5.225 3.721-2.916 1.804 2.304-1.908 5.225-3.721 2.916z" fill="#BDBDBD"/><path d="M257.715 128.099c-1.979-2.521 3.65-4.292 3.142-.996-.238 1.546-2.246 2.142-3.142.996z" fill="#D1D5DA"/><path d="M326.945 142.57c1.417 3.292-.608 7.038-3.175 10.042l-.35 2.179 2.258-.175 3.305-10.954c-.159-.796-1.03-1.242-2.038-1.092" fill="#959DA5"/><path d="M326.945 142.57c-.554.083-1.15.342-1.7.829l-1.475 9.213c2.567-3.004 4.592-6.75 3.175-10.042z" fill="#6A737D"/><path d="M317.025 177.551l-3.33 1.688c.4.125.696.325.825.583.325.8.9 1.338 1.55 1.713l1.384-2.263-.429-1.721zm11.295-.146l-7.02.27c-.284-2.991.27-5.033 1.237-8.262a.306.306 0 01.384-.208.313.313 0 01.137.083l6.329 6.7-1.067 1.417z" fill="#959DA5"/><path d="M321.891 203.459l4.959-27.363 3.541 2.742-2.421 21.812-6.079 2.809z" fill="#B6BFC4"/><path d="M299.955 144.548c-6.375.945-12.145 5.47-12.145 12.762 0 10.304 5.745 14.108 12.283 15.771" stroke="#0366D6" stroke-width=".88" stroke-miterlimit="10"/><path d="M314.319 163.464c.237-.425.787-.575 1.25-.333.462.246.658.792.429 1.229a.83.83 0 01-.454.404" stroke="#0366D6" stroke-width=".59" stroke-miterlimit="10"/><path d="M298.539 146.326s3.363-3.208 7.288-4.975c0 0 1.771-1.179 2.246.729.412 1.638.3 3.396.3 3.396" stroke="#0366D6" stroke-width=".88" stroke-miterlimit="10"/><path d="M312.419 148.273s.7-2.296.7-3.796c0-1.496-4.746-.296-4.746-.296m2.377 2.841c.609-1.017 1.359-1.871 2.363-2.359m-8.885 3.01c.612-1.675 1.587-5.546 3.791-6.084m-3.97 24.667a7.545 7.545 0 00-.563-.021c-2.475 0-5.641 1.004-8.141 2.367m2.726 2.842c2.363-2.267 3.284-2.429 6.675-3.225m9.89-14.378c-1.9-.425-3.554-2.571-5.275-2.571-1.783 0-3.546 2.521-3.546 6.171 0 5.521 2.413 6.454 2.413 8.159 0 .983-.713 1.875-.713 2.92 0 2.167 1.825 3.288 3.763 3.45m2.142 7.6c1.458.116 2.358 1.82 3.858 1.82 1.6 0 4.337-2.116 4.337-5.245 0-2.225-1.458-4.271-4.429-4.271-4.025 0-4.333 1.529-15.216 10.941" stroke="#0366D6" stroke-width=".88" stroke-miterlimit="10"/><path d="M303.141 181.799c-.462-1.775-.879-3.35-.971-5.329-.062-1.354.467-3.996-.983-3.996-2.237 0-2.467 5.942-2.467 7.934 0 4.012 1.284 7.112 5.292 7.112a9.015 9.015 0 002.175-.287c4.104-1.013 5.217-6.5 8.567-8.875m-22.782 20.564c0-.921.921-14.975 7.4-24.305" stroke="#0366D6" stroke-width=".88" stroke-miterlimit="10"/><path d="M305.339 144.619c5.529 1.016 9.583 5.087 9.583 12.404 0 2.025-.321 4.05-.833 6.004.929 1.113 2.279 1.921 2.279 3.821 0 4.279-8.254 6.729-13.004 6.729-.438 0-.85-.025-1.221-.067m-5.28 26.612c.542-6.121 1.637-12.137 2.396-15.912m-15.779-22.548c4.654 6.246 5.442 14.816 9.271 14.816 1.75 0 3.954-1.037 7.108-3.458m2.721 26.089c-.18-3.746-.317-8.717-.396-11.85l.396 11.85z" stroke="#0366D6" stroke-width=".88" stroke-miterlimit="10"/><path d="M280.485 171.659c5.342 4.675 7.554 8.567 10.779 8.567 1.617 0 3.538-.825 6.338-2.713m-17.076-7.571c-.09.008-.18.013-.271.013-1.596 0-2.596-1.6-4.146-1.6-.675 0-.971.362-.971.858 0 1.092 1.43 2.829 3.434 2.829.421 0 .862-.075 1.325-.25.891-.337 5.596-1.787 2.575-9.292" stroke="#0366D6" stroke-width=".88" stroke-miterlimit="10"/><path d="M285.783 165.475c-1.125-2.159-3.283-6.15-5.967-6.15-1.979 0-4.083 1.7-4.083 4.708 0 1.358.379 2.721.442 4.125v.033m46.685-17.005c3.279-7.979 4.587-5.562 2.858-1.433-.525 1.254-1.588 2.546-2.733 3.879" stroke="#0366D6" stroke-width=".88" stroke-miterlimit="10"/><path clip-rule="evenodd" d="M323.177 154.305c.271 1.079 1.671 3.092 3.8 3.092 2.346 0 3.113-2.813 3.113-5.613 0-1.575-.317-5.654-1.909-5.654-3.366 0-5.291 3.55-5.291 6.217 0 .654.095 1.308.287 1.962v-.004z" stroke="#0366D6" stroke-width=".88"/><path d="M323.893 156.132c-2.287 2.346-5.108 4.154-9.575 5.938m.534-3.399c1.267-.983 2.554-1.946 3.721-2.987 1.517-1.354 2.825-2.863 4.258-4.271l-7.979 7.258z" stroke="#0366D6" stroke-width=".88" stroke-miterlimit="10"/><path clip-rule="evenodd" d="M286.382 173.526c.514-.512.171-1.689-.764-2.626-.936-.936-2.112-1.28-2.625-.767-.514.512-.171 1.689.764 2.626.935.936 2.112 1.28 2.625.767z" stroke="#0366D6" stroke-width=".77" stroke-miterlimit="10"/><path clip-rule="evenodd" d="M291.798 178.811c.297-.515-.294-1.412-1.318-2.003-1.025-.592-2.098-.653-2.395-.138-.297.515.294 1.413 1.318 2.004 1.025.591 2.098.652 2.395.137v0zm28.453-21.622c-.298-.515-1.371-.453-2.395.138-1.024.592-1.614 1.49-1.316 2.006.297.515 1.37.453 2.395-.138 1.024-.592 1.614-1.49 1.316-2.006z" stroke="#0366D6" stroke-width=".88" stroke-miterlimit="10"/><path d="M314.229 181.889c.2-.4.388-.817.571-1.238a9.79 9.79 0 01-.554-.504c-.129-.254-.433-.458-.825-.579l-3.471 1.762c.454.3.892.638 1.325.855.888.591 2.363.591 2.954-.296" fill="#6A737D"/><path d="M314.229 181.889c-.591.887-2.066.887-2.954.296-.433-.217-.871-.555-1.325-.855l-.387.196c-.025 2.317.941 3.613 3.387 3.892l3.121-3.883a8.64 8.64 0 01-1.271-.884c-.179.418-.37.83-.571 1.238" fill="#959DA5"/><path d="M204.588 217.053l1.371 6.217c58.587-2.867 104.2-12.046 132.004-18.421-18.663 2.904-55.938 7.004-133.375 12.204zm154.234-34.883c0-.834-.667-1.546-2.259-2.05-4.875.154-10.045 2.437-15.429 5.004-9.291 4.433-27.029 12.671-27.029 12.671s-11.333.245-26.721.545c2.767 1.325 6.554 1.971 11.421 1.971 11.883 0 60.017-8.012 60.017-18.141z" fill="#D1D5DA"/><path d="M361.694 191.626c-8.533 0-66.571 21.658-166.058 23.241l-.021.25 8.871 1.475.1.463c77.441-5.204 114.712-9.304 133.379-12.204 21.713-3.384 18.25-5.146 23.533-5.146 1.913 0 2.725 1.012 2.725 2.008 0 6.663-49.191 22.179-96.054 34.1l20 1.609 1.013.083c77.087-3.596 82.366-33.796 82.366-33.796.309-.171.609-.35.884-.537-.505-6.98-3.125-11.546-10.738-11.546" fill="#D1D5DA"/><path d="M210.052 201.664c15.105.888 30.709 1.609 45.051-2.746-23.021.38-45.101.638-49.984.359-7.046-.409-8.875 5.012-9.283 8.946 2.954-4.513 8.662-6.775 14.216-6.559" fill="#FAFBFC"/><path d="M374.715 197.795c-.629-2.955-.421-7.18-8.025-13.938-3.196-2.842-6.587-3.854-10.125-3.737 1.588.504 2.258 1.216 2.258 2.05 0 10.129-48.133 18.141-60.02 18.141-4.867 0-8.655-.646-11.417-1.971-9.75.188-21.125.396-32.284.58-14.341 4.35-29.95 3.633-45.049 2.745-5.559-.216-11.263 2.046-14.217 6.559-.225 2.196-.008 3.933-.008 3.933l-.192 2.713c99.487-1.584 157.525-23.242 166.058-23.242 7.613 0 10.233 4.562 10.738 11.546 1.8-1.209 2.833-2.817 2.283-5.379z" fill="#EDF0F2"/><path d="M364.225 201.713c0-.996-.812-2.004-2.725-2.004-5.287 0-4.17.841-23.537 5.141-27.804 6.371-73.417 15.55-132.004 18.421l1.696 7.688 60.512 4.858c46.863-11.925 96.058-27.442 96.058-34.104z" fill="#E1E4E8"/><path d="M194.434 221.363c-1.375.295-1.904.77-1.904 1.283 0 1.171 2.754 2.554 4.545 2.554.859 0 1.496-.321 1.496-1.137 0-1.542-3.341-2.73-3.871-2.73-.087 0-.179.009-.266.03" fill="#FAFBFC"/><path d="M377.812 224.036c2.158-.663 2.229-3.017.904-4.729-3.075.383-4.888 4.579-.909 4.754.005-.009.005-.017.005-.025" fill="#F2F2F2"/><path d="M284.688 225.785c-1.816.225-3.195 1.788-3.195 3.059 0 .879.658 1.621 2.287 1.696 0-.009.004-.017.004-.025 1.25-.384 1.784-1.313 1.784-2.346 0-.8-.321-1.663-.88-2.384zm38.282 2.027c-1.034.1-1.821.804-1.821 1.375 0 .396.371.729 1.304.762 0-.004 0-.008.004-.008.713-.175 1.017-.592 1.017-1.054 0-.359-.184-.75-.504-1.075" fill="#fff"/><path d="M324.65 221.777c.571 0 .575-.883 0-.883-.571 0-.571.883 0 .883zm10.47-8.947c.208.191.5.304.787.275.161-.01.317-.056.458-.134.146-.079.25-.196.35-.325a.77.77 0 00-.07.092c.112-.133.2-.283.237-.454a1.202 1.202 0 00-.004-.517.952.952 0 00-.088-.237.742.742 0 00-.07-.134.987.987 0 00-.363-.325.99.99 0 00-.346-.091.728.728 0 00-.237.025.743.743 0 00-.379.225.932.932 0 00-.209.395 1.038 1.038 0 00-.016.467c.02.15.095.296.204.408a.714.714 0 00.521.221.449.449 0 00.441-.446.448.448 0 00-.441-.437c-.013 0-.03-.004-.042-.004.042.004.075.012.117.016a.208.208 0 01-.071-.02c.037.016.071.033.108.045a.334.334 0 01-.062-.033l.091.067c-.021-.017-.037-.034-.054-.05.025.029.05.058.071.087-.017-.021-.029-.05-.042-.071.013.034.029.067.046.105a.462.462 0 01-.033-.121l.012.116a.662.662 0 01.004-.154 1.174 1.174 0 00-.016.117c.004-.054.021-.1.037-.15a.746.746 0 01-.046.104c.021-.037.042-.079.067-.112-.021.029-.046.058-.067.091.017-.025.042-.046.059-.066-.025.02-.054.045-.088.07a.228.228 0 01.084-.045c-.038.012-.075.029-.109.041a.573.573 0 01.084-.021c-.042.005-.084.013-.121.017a.418.418 0 01.1 0 .979.979 0 01-.121-.017c.037.009.075.017.112.03-.037-.013-.07-.03-.108-.042.033.012.067.033.1.05-.033-.017-.062-.042-.092-.067a.726.726 0 01.096.096 1.494 1.494 0 00-.071-.087.679.679 0 01.092.15c-.017-.038-.033-.071-.046-.105a.752.752 0 01.05.18c-.004-.034-.012-.075-.016-.117a.7.7 0 010 .183c.004-.041.012-.079.016-.116a.542.542 0 01-.046.158.854.854 0 00.046-.108.43.43 0 01-.066.116c.025-.029.05-.062.07-.091-.037.05-.075.095-.108.141.021-.029.046-.058.071-.091a.43.43 0 01-.1.095c.029-.02.062-.041.092-.066a.515.515 0 01-.13.071c.034-.009.067-.025.105-.042a.676.676 0 01-.171.046.527.527 0 01.112-.013h-.162c.041 0 .081.004.121.013-.059-.009-.113-.017-.159-.042.034.016.068.03.104.042a.396.396 0 01-.116-.063c.029.021.058.046.087.067-.016-.013-.029-.021-.041-.033a.442.442 0 00-.313-.134.445.445 0 00-.312.134.422.422 0 00-.13.312.454.454 0 00.13.313zm34.733 4.821c-.675 1.167.458 2.621 1.587 1.446 1.771-1.846-.617-3.121-1.587-1.446z" fill="#F2F2F2"/><path d="M187.313 227.189a.43.43 0 00-.204-.262.435.435 0 00-.604.158c-.017.033-.03.067-.046.104-.009.029-.009.054-.013.084a.696.696 0 00-.308.004.453.453 0 00-.196.112.442.442 0 00-.104.433c0 .005-.004.005-.004.005a.457.457 0 00-.134.316c.009.117.046.23.134.313a.713.713 0 00.662.175.705.705 0 00.467-.358c.046-.113.067-.163.075-.288v-.004a.879.879 0 00.192-.233.71.71 0 00.083-.213.876.876 0 000-.346" fill="#FAFBFC"/><path d="M178.78 228.137c-.171-.296-.496-.479-.842-.4a.057.057 0 01-.025.008.269.269 0 00-.07-.087c-.188-.175-.434-.158-.625 0-.35.292-.625.683-.667 1.15-.021.225.037.454.137.646.113.225.309.383.534.475.154.058.312.071.475.054a.76.76 0 00.458.054c.267-.062.471-.287.592-.521.221-.416.271-.958.033-1.379" fill="#F2F2F2"/><path d="M150.415 234.993c-.004-.033-.008-.087-.017-.116v-.017a1.385 1.385 0 00-.054-.125h-.004c-.004-.004-.062-.083-.071-.092 0-.004-.004-.004-.004-.008h-.004a1.605 1.605 0 00-.092-.071v-.004h-.008a.402.402 0 00-.121-.05s-.004-.004-.008-.004c-.017 0-.104-.013-.121-.017h-.025c-.042.004-.083.013-.125.017-.004.004-.004.004-.008.004-.009 0-.013.004-.021.004l-.125.05c-.013.009-.025.013-.038.025a1.763 1.763 0 00-.096.075s-.004.004-.008.004c-.004.009-.008.013-.012.017-.021.029-.05.058-.071.092l-.004.004s-.005.004-.005.008c-.016.038-.037.079-.05.117a.563.563 0 00-.016.142v.004c0 .021.012.1.016.12v.013c.005.008.042.096.05.104v.004c0 .005 0 .005.005.009a.308.308 0 00.037.05l.038.05c.004.004.008.008.008.012.041.04.091.071.146.088a.284.284 0 00.166.037.299.299 0 00.171-.037.379.379 0 00.125-.075h.021a.412.412 0 00.196-.117l.067-.088a.426.426 0 00.062-.225v-.004z" fill="#FAFBFC"/><path d="M178.957 150.673h-1.737v-6.987c0-.488-1.475-.496-1.475 0v6.987h-1.913c0-11.479.188-11.32-.442-11.32-.633 0-.445-.159-.445 11.32h-1.005l-2.029 45.313h-12v4.933h6.638v2.654h5.021l-1.609 35.88h14.979l-1.612-35.88h4.454v-2.654h6.067v-4.933H180.99l-2.033-45.313z" fill="#EDF0F2"/><path d="M175.311 141.26c-.066-.25-.308-.35-.541-.309-1.02.169-2.057.211-3.088.125-.237-.021-.442.217-.442.442 0 .254.205.425.442.442 1.113.091 2.225.029 3.321-.159.233-.037.367-.329.308-.541zm2.631 2.549a5.283 5.283 0 00-2.842.154c-.22.08-.387.309-.308.546.067.217.308.392.542.309.208-.071.421-.134.637-.175.209-.042.309-.055.538-.067a4.87 4.87 0 01.616 0c.238.017.334.033.584.087.225.046.487-.07.541-.312.05-.221-.066-.492-.308-.542" fill="#D1D5DA"/><path d="M160.982 204.362l3.563-3.442h21.237l2.875 4.48-27.675-1.038z" fill="#E1E4E8"/><path d="M254.28 206.755c2.33 0 4.259 1.15 5.321 2.795a7.995 7.995 0 00-.221-1.229c-.004-.008 0-.021 0-.033 0-.375-1.587-3.925-5.412-3.925-3.133 0-6.367 2.287-6.367 5.533 0 1.067.004 2.184.521 3.259-.429-3.292 2.35-6.4 6.158-6.4zm-.245 15.975c-5.738 0-8.425-5.205-11.271-7.717 1.016 4.621 4.854 8.629 11.516 8.629 8.017 0 11.942-5.808 11.784-11.496-1.334 5.463-6.388 10.584-12.029 10.584zm46.368-19.243c3.087 0 5.437 2.058 5.875 4.525.137-.454.204-.887.204-1.296 0-2.887-3.258-4.487-6.35-4.487-2.787 0-5.442 1.304-5.442 4.133 0 .254.025.525.071.808.767-2.079 2.925-3.683 5.642-3.683" fill="#B6BFC4"/><path d="M310.583 204.065c.25 1.004.392 2.117.392 3.354 0 6.096-4.192 9.979-8.842 9.979-10.37 0-10.758-4.837-13.025-8.066.229 5.046 3.996 9.933 11.296 9.933 9.921 0 13.308-9.025 10.179-15.2zm28.036-11.446c3.571-1.029 6.571 1.941 6.221 5.829.375-.725.413-1.404.413-2.096 0-3.108-1.634-5.542-4.767-5.542-3.167 0-6.746 2.605-6.746 6.063 0 .496.087.971.238 1.433.366-2.554 2.125-4.966 4.641-5.687" fill="#B6BFC4"/><path d="M348.25 191.036c.396 1.475.6 3.008.6 4.537 0 8.021-5.162 13.346-11.712 13.346-2.271 0-4.125-.862-5.992-1.854 1.996 2.804 5.309 4.346 9.734 3.075 8.845-2.537 10.762-12.987 7.37-19.104z" fill="#B6BFC4"/><path d="M253.967 204.362c1.358 0 2.433.446 3.254 1.042a27.917 27.917 0 00-.062-3.804c-.892-.18-1.85-.275-2.879-.275-4.184 0-7.25 1.583-9.209 3.904a17.07 17.07 0 013.371 1.954c1.167-1.738 3.371-2.821 5.525-2.821zm41.183.155c.883-1.554 2.891-2.284 4.979-2.284 2.033 0 4.133.688 5.337 1.975.617-1.329 1.042-2.741 1.313-4.195-1.688-.996-3.813-1.601-6.375-1.601-3.867 0-6.738 1.371-8.625 3.413 1.287.621 2.396 1.583 3.371 2.692zm45.337-13.705a4.955 4.955 0 011.833.333c-.067-1.541-.304-3.137-.754-4.587-1.121-.083-2.346.042-3.671.421-4.012 1.15-6.596 3.933-7.908 7.204 1.379.417 2.633 1.017 3.808 1.983.438-3.096 3.742-5.354 6.692-5.354zm-89.759 26.376c-.779 1.045-1.42 2.433-1.77 3.937 1.404.954 3.05 1.604 5.075 1.604 2.829 0 5.508-1.287 7.645-3.254-.729-1.242-1.55-2.4-2.55-3.408-2.054 2.404-5.816 2.775-8.4 1.121" fill="#E1E4E8"/><path d="M266.065 212.146c-.13-4.738-3.096-9.392-8.909-10.546.088 1.046.146 2.387.067 3.804 1.492 1.083 2.158 2.646 2.158 2.883 0 .013-.004.025 0 .034.104.416.179.825.221 1.229.95 1.462 1.204 3.313.429 5.083a5.805 5.805 0 01-.904 1.434c1 1.008 1.821 2.166 2.55 3.408 2.129-1.963 3.721-4.604 4.388-7.329zm-17.53 2.486a5.293 5.293 0 01-.412-1.475c-.517-1.075-.521-2.196-.521-3.262 0-1.013.312-1.93.841-2.713a17.423 17.423 0 00-3.37-1.954c-2.275 2.708-3.046 6.408-2.309 9.787 1.842 1.621 3.613 4.375 6.192 6.113.35-1.508.996-2.896 1.771-3.942a5.72 5.72 0 01-2.192-2.554" fill="#B6BFC4"/><path d="M306.055 210.506c-.046.113-.088.229-.138.342-1.621 3.587-6.508 4.287-9.383 2.071a158.161 158.161 0 00-1.896 3.096c1.679.841 4.029 1.383 7.496 1.383 2.954 0 5.725-1.571 7.346-4.279-.98-1.371-2.109-2.209-3.425-2.613z" fill="#E1E4E8"/><path d="M310.583 204.065a9.844 9.844 0 00-3.804-4.054c-.275 1.454-.696 2.871-1.317 4.196.634.675 1.021 1.516 1.021 2.512 0 .4-.066.838-.204 1.292a4.822 4.822 0 01-.225 2.496c1.317.404 2.446 1.241 3.425 2.612.933-1.554 1.496-3.479 1.496-5.7 0-1.237-.142-2.35-.392-3.354zm-15.69 6.783a4.789 4.789 0 01-.133-3.679 5.047 5.047 0 01-.071-.804c0-.713.167-1.33.463-1.85-.98-1.105-2.084-2.071-3.371-2.692-1.904 2.062-2.796 4.808-2.675 7.508 1.512 2.146 2.191 5.013 5.529 6.684.558-.934 1.179-1.955 1.9-3.096a5.384 5.384 0 01-1.642-2.071zm53.357-19.812c-1.383-2.492-3.645-4.254-6.683-4.479.45 1.45.688 3.046.754 4.587 1.929.771 2.929 2.779 2.929 5.204 0 .505-.02 1-.175 1.513.775-.583 1.6-1.113 2.355-1.708-.075.095-.15.187-.225.287.612.379 1.1.921 1.479 1.554a17.58 17.58 0 00-.434-6.958" fill="#B6BFC4"/><path d="M347.205 196.44c-.017.016-.03.037-.046.058.016-.021.029-.042.046-.058l.225-.288c-.755.596-1.58 1.125-2.355 1.708a3.2 3.2 0 01-.233.588 6.948 6.948 0 01-.137.896c-.821 3.766-4.075 5.787-6.838 5.283a6.68 6.68 0 00-.067.871c0 1.267.555 1.904 2.025 3.104 4.584-1.096 8.075-5.004 8.855-10.608-.375-.634-.863-1.175-1.475-1.554" fill="#E1E4E8"/><path d="M347.16 196.497c.017-.021.029-.042.046-.059-.017.017-.029.038-.046.059z" fill="#D1D5DA"/><path d="M337.801 205.497c0-.258.025-.55.067-.871-1.275-.233-2.446-1-3.225-2.391-.667-1.2-.863-2.584-.667-3.93a4.623 4.623 0 01-.237-1.433c0-.237.016-.475.054-.704-1.171-.971-2.429-1.567-3.804-1.988-1.742 4.334-1.242 9.517 1.154 12.884 1.871.991 3.725 1.854 5.996 1.854.925 0 1.825-.108 2.683-.317-1.467-1.2-2.021-1.837-2.021-3.104" fill="#B6BFC4"/><path d="M369.67 186.585c.266.629.433 1.225.466 1.737.625 1.4.559 2.758-1.175 3.342-1.596.537-3.462.054-5.075-.971.104.383.159.742.159 1.079 0 .8-.309 1.488-.959 2.133 1.249.495 2.581.749 3.925.75 3.263 0 5.575-1.633 7.159-4.104.325-1.921-.05-4.071-1.355-6.183-1.12.212-2.233 1.096-3.145 2.217z" fill="#E1E4E8"/><path d="M364.046 191.773c0-.338-.058-.696-.158-1.08-2.242-1.429-3.988-3.916-3.808-6.241-1.192-.492-2.546-.729-3.925-.834.095 5.05 3.1 8.763 6.933 10.288.65-.65.958-1.334.958-2.134v.001zm6.067-10.515c-1.1-.954-2.204-1.65-3.296-2.145.063.679.088 1.362.088 2.041 0 .467-.009.938-.038 1.409 1.221 1.229 2.242 2.704 2.804 4.02.909-1.116 2.025-2.004 3.142-2.216-.654-1.059-1.542-2.109-2.7-3.109z" fill="#B6BFC4"/><path d="M360.132 184.037c.025-.146.062-.279.1-.408-.217-.642-.325-1.204-.325-1.679 0-1.346.812-2.034 2.016-2.034 1.625 0 3.438 1.134 4.942 2.646.07-1.15.053-2.303-.05-3.45-4.433-2.008-8.546-.467-10.562 2.571-.063.567-.1 1.133-.1 1.696 0 .079.004.162.004.237 1.375.109 2.729.342 3.921.838.012-.142.029-.279.054-.417" fill="#E1E4E8"/><path d="M367.013 194.657c-5.567 0-10.863-4.45-10.863-11.279 0-.562.038-1.129.104-1.696-2.15 3.238-1.908 8.167 2.871 12.296 6.904 5.963 14.075 2.321 15.046-3.425-1.583 2.467-3.9 4.105-7.158 4.105v-.001zm.655-9.542c.92.796 1.945 2.017 2.47 3.209-.187-2.934-4.641-8.409-8.216-8.409-1.204 0-2.013.688-2.013 2.034 0 .475.104 1.037.325 1.683.904-2.767 5.204-.45 7.434 1.483" fill="#B6BFC4"/><path d="M389.547 245.821c4.754-.904 3.358-15.579-25.379-15.804 0 0 15.391-12.671-15.838-3.85l-.258.075c-3.567-.646-7.171-1.017-10.734-1.017-3.15 0-11.77.292-11.77 3.438 0 .729 2.9 4.075 3.52 4.792-11.995 1.337-15.391-.9-21.35-3.367-5.95-2.475-25.025-.3-12.354 5.583 0 0-18.1-2.487-33.487-.225 0 0-38.238-13.804-67.425-5.658 0 0-29.371 6.383 28.779 9.775 0 0 3.121 2.671-18.146.633-21.271-2.037-51.362-7.916-43.896-4.525 7.467 3.396 12.446 3.846 18.329 4.525 5.88.679-26.704-1.579-30.095-2.712-3.392-1.129-6.788 3.391-34.167 5.204-27.379 1.808-15.158 2.712-31.225.675-16.063-2.033-18.1-3.392-32.808-1.583-14.709 1.812-26.805 4.041-26.805 4.041h365.109z" fill="#FAFBFC"/><path d="M108.921 128.261c.571 0 .571-.883 0-.883s-.571.883 0 .883z" fill="#D1D5DA"/></svg>
